<svg id="Capa_1" enable-background="new 0 0 512 512" height="512" viewBox="0 0 512 512" width="512" xmlns="http://www.w3.org/2000/svg"><g><g><g><path d="m253.533 72.327 6.487 22.019c11.61 39.409 59.178 54.865 91.734 29.806l18.19-14.001c2.756-2.121 6.578.656 5.413 3.932l-7.694 21.626c-13.772 38.707 15.627 79.17 56.695 78.034l22.946-.635c3.476-.096 4.936 4.397 2.067 6.363l-18.937 12.973c-33.893 23.22-33.893 73.236 0 96.455l18.937 12.973c2.869 1.965 1.409 6.459-2.067 6.363l-22.946-.635c-41.068-1.136-70.467 39.327-56.695 78.034l7.694 21.626c1.166 3.276-2.657 6.054-5.413 3.932l-18.19-14.001c-32.557-25.059-80.125-9.603-91.734 29.806l-6.487 22.019c-.983 3.336-5.708 3.336-6.69 0l-6.487-22.019c-11.61-39.409-59.178-54.865-91.734-29.806l-18.19 14.001c-2.756 2.121-6.578-.656-5.413-3.932l7.694-21.626c13.772-38.707-15.627-79.17-56.695-78.034l-22.946.635c-3.476.096-4.936-4.397-2.067-6.363l18.937-12.973c33.893-23.22 33.893-73.236 0-96.455l-18.937-12.973c-2.869-1.965-1.409-6.459 2.067-6.363l22.946.635c41.068 1.136 70.467-39.327 56.695-78.034l-7.694-21.626c-1.166-3.276 2.657-6.054 5.413-3.932l18.19 14.001c32.557 25.059 80.125 9.603 91.734-29.806l6.487-22.019c.982-3.335 5.707-3.335 6.69 0z" fill="#fe9738"/></g><g><g><path d="m120 280.673c0-63.16 34.115-118.344 84.917-148.157-17.988 6.774-39.208 4.788-56.295-8.364l-18.19-14.001c-2.756-2.121-6.578.656-5.413 3.932l7.694 21.626c13.772 38.707-15.627 79.17-56.695 78.034l-22.946-.635c-3.476-.096-4.936 4.398-2.067 6.363l18.937 12.973c33.893 23.22 33.893 73.236 0 96.455l-18.937 12.973c-2.869 1.965-1.409 6.459 2.067 6.363l22.946-.635c41.068-1.136 70.467 39.327 56.695 78.034l-7.694 21.626c-1.166 3.276 2.657 6.054 5.413 3.932l18.19-14.001c17.087-13.152 38.307-15.138 56.295-8.364-50.802-29.809-84.917-84.993-84.917-148.154z" fill="#fe860a"/></g></g><g><circle cx="250.188" cy="280.673" fill="#fee45a" r="120.673"/></g><g><g><circle cx="250.188" cy="280.673" fill="#fed402" r="88.304"/></g><g><path d="m203.393 280.673c0-41.62 28.796-76.508 67.549-85.844-6.657-1.604-13.605-2.459-20.754-2.459-48.769 0-88.304 39.535-88.304 88.304s39.535 88.304 88.304 88.304c7.149 0 14.097-.856 20.754-2.459-38.754-9.337-67.549-44.226-67.549-85.846z" fill="#fac600"/></g></g></g><path d="m462.915 132.874h-13.068v-13.067c0-4.143-3.358-7.5-7.5-7.5s-7.5 3.357-7.5 7.5v13.067h-13.068c-4.142 0-7.5 3.357-7.5 7.5s3.358 7.5 7.5 7.5h13.068v13.068c0 4.143 3.358 7.5 7.5 7.5s7.5-3.357 7.5-7.5v-13.068h13.068c4.142 0 7.5-3.357 7.5-7.5s-3.358-7.5-7.5-7.5z" fill="#fed402"/><path d="m198.619 476.432h-13.068v-13.067c0-4.143-3.358-7.5-7.5-7.5s-7.5 3.357-7.5 7.5v13.067h-13.068c-4.142 0-7.5 3.357-7.5 7.5s3.358 7.5 7.5 7.5h13.068v13.068c0 4.143 3.358 7.5 7.5 7.5s7.5-3.357 7.5-7.5v-13.068h13.068c4.142 0 7.5-3.357 7.5-7.5s-3.358-7.5-7.5-7.5z" fill="#fac600"/><path d="m357.132 27.543h-20.042v-20.043c0-4.143-3.358-7.5-7.5-7.5s-7.5 3.357-7.5 7.5v20.043h-20.043c-4.142 0-7.5 3.357-7.5 7.5s3.358 7.5 7.5 7.5h20.043v20.042c0 4.143 3.358 7.5 7.5 7.5s7.5-3.357 7.5-7.5v-20.042h20.042c4.142 0 7.5-3.357 7.5-7.5s-3.358-7.5-7.5-7.5z" fill="#fac600"/><g><path d="m53.818 101.524c-6.31 19.541-13.223 26.454-32.764 32.764-2.369.765-2.369 4.135 0 4.899 19.541 6.31 26.454 13.223 32.764 32.764.765 2.369 4.135 2.369 4.899 0 6.31-19.541 13.223-26.454 32.764-32.764 2.369-.765 2.369-4.135 0-4.899-19.541-6.31-26.454-13.223-32.764-32.764-.764-2.368-4.134-2.368-4.899 0z" fill="#fed402"/></g><g><g><path d="m38.635 126.084c-4.457 3.274-10.089 5.786-17.581 8.205-2.369.765-2.369 4.135 0 4.899 19.541 6.31 26.454 13.224 32.764 32.764.765 2.369 4.135 2.369 4.899 0 2.419-7.49 4.929-13.12 8.202-17.577-5.661-15.941-12.347-22.629-28.284-28.291z" fill="#fac600"/></g></g><g><path d="m453.282 400.272c-6.31 19.541-13.223 26.454-32.764 32.764-2.369.765-2.369 4.135 0 4.899 19.541 6.31 26.454 13.223 32.764 32.764.765 2.369 4.135 2.369 4.899 0 6.31-19.541 13.223-26.454 32.764-32.764 2.369-.765 2.369-4.135 0-4.899-19.541-6.31-26.454-13.223-32.764-32.764-.764-2.369-4.134-2.369-4.899 0z" fill="#fed402"/></g><g><g><path d="m436.404 426.003c-4.173 2.717-9.313 4.91-15.886 7.032-2.369.765-2.369 4.135 0 4.899 19.541 6.31 26.454 13.223 32.764 32.764.765 2.369 4.135 2.369 4.899 0 2.098-6.498 4.267-11.594 6.941-15.742-5.732-16.433-12.425-23.206-28.718-28.953z" fill="#fac600"/></g></g></g></svg>